# xmcd
#
# Track frame offsets: 
#        150
#        15315
#        29997
#        46057
#        59670
#        72230
#        89965
#        118017
#        134322
#        150627
#        176277
#        200742
#        218395
#        232443
#        249944
#        263777
#        283109
#        299202
#        312269
#
# Disc length: 4350 seconds
#
# Revision: 0
# Processed by: cddbd v1.5.2PL0 Copyright (c) Steve Scherf et al.
# Submitted via: ExactAudioCopyFreeDBPlugin 1.0
#
DISCID=2b10fc13
DTITLE=The Blind Boys Of Alabama - Higher Ground (Expanded Reissue)
DYEAR=2016
DGENRE=Gospel
TTITLE0=People Get Ready
TTITLE1=Spirit In The Dark
TTITLE2=Wade In The Water
TTITLE3=Stand By Me
TTITLE4=The Cross
TTITLE5=Many Rivers To Cross
TTITLE6=Higher Ground
TTITLE7=Freedom Road
TTITLE8=I May Not Can See
TTITLE9=You And Your Folks - 23rd Psalm
TTITLE10=I Shall Not Walk Alone
TTITLE11=Precious Lord
TTITLE12=Run On For A Long Time (Live on Morning Becomes Electric, KCR
TTITLE12=W 2002)
TTITLE13=My Lord What A Morning (Live on Morning Becomes Electric, KCR
TTITLE13=W 2002)
TTITLE14=Freedom Road (Live on Morning Becomes Electric, KCRW 2002)
TTITLE15=Higher Ground (Live on Morning Becomes Electric, KCRW 2002)
TTITLE16=People Get Ready (Live on Morning Becomes Electric, KCRW 2002
TTITLE16=)
TTITLE17=Wade In The Water (Live on Morning Becomes Electric, KCRW 200
TTITLE17=2)
TTITLE18=Amazing Grace (Live on Morning Becomes Electric, KCRW 2002)
EXTD=
EXTT0=
EXTT1=
EXTT2=
EXTT3=
EXTT4=
EXTT5=
EXTT6=
EXTT7=
EXTT8=
EXTT9=
EXTT10=
EXTT11=
EXTT12=
EXTT13=
EXTT14=
EXTT15=
EXTT16=
EXTT17=
EXTT18=
PLAYORDER=
